<svg width="472" height="69" viewBox="0 0 472 69" fill="none" xmlns="http://www.w3.org/2000/svg">
<path d="M25.6742 25.88C23.0342 25.88 21.1442 27.32 20.0042 30.2C18.8642 33.08 18.2942 37.85 18.2942 44.51V49.19C18.2942 55.13 18.9542 59.39 20.2742 61.97C21.5942 64.55 24.0242 65.84 27.5642 65.84C31.1042 65.84 33.9242 64.64 36.0242 62.24C38.1242 59.84 39.4742 57.11 40.0742 54.05L41.6942 54.23C40.5542 59.39 38.4542 63.11 35.3942 65.39C32.2742 67.73 27.9842 68.9 22.5242 68.9C15.5642 68.9 10.2242 67.04 6.50422 63.32C2.78422 59.54 0.924219 54.05 0.924219 46.85C0.924219 39.59 3.02422 34.01 7.22422 30.11C11.4842 26.21 17.3942 24.26 24.9542 24.26C30.2942 24.26 34.3742 25.31 37.1942 27.41C40.0142 29.45 41.4242 32.03 41.4242 35.15C41.4242 38.27 40.7342 40.55 39.3542 41.99C38.0342 43.43 36.1742 44.15 33.7742 44.15C31.4342 44.15 29.5442 43.52 28.1042 42.26C26.6642 41 25.9442 39.14 25.9442 36.68C25.9442 35.6 26.0942 34.52 26.3942 33.44H29.3642C29.7842 32.24 29.9942 31.16 29.9942 30.2C29.9942 27.32 28.5542 25.88 25.6742 25.88ZM65.5801 46.85H68.1901V39.92C68.1901 34.22 67.8601 30.41 67.2001 28.49C66.6001 26.51 65.4001 25.52 63.6001 25.52C62.5201 25.52 61.5301 25.82 60.6301 26.42C59.7901 26.96 59.3701 27.74 59.3701 28.76C59.3701 29.72 59.5501 30.71 59.9101 31.73H62.1601C62.6401 32.99 62.8801 34.52 62.8801 36.32C62.8801 38.06 62.1301 39.59 60.6301 40.91C59.1301 42.17 57.2401 42.8 54.9601 42.8C49.8001 42.8 47.2201 40.31 47.2201 35.33C47.2201 27.95 53.4901 24.26 66.0301 24.26C73.1701 24.26 78.0901 25.49 80.7901 27.95C83.5501 30.35 84.9301 34.79 84.9301 41.27V59.54C84.9301 62.66 85.8001 64.22 87.5401 64.22C89.5801 64.22 90.7801 61.13 91.1401 54.95L92.4901 55.04C92.2501 60.32 91.2601 63.95 89.5201 65.93C87.7801 67.91 84.9301 68.9 80.9701 68.9C73.7701 68.9 69.6301 66.68 68.5501 62.24C67.7701 64.52 66.6001 66.2 65.0401 67.28C63.4801 68.36 61.2001 68.9 58.2001 68.9C49.3201 68.9 44.8801 65.27 44.8801 58.01C44.8801 53.75 46.5601 50.84 49.9201 49.28C53.3401 47.66 58.5601 46.85 65.5801 46.85ZM61.9801 57.92C61.9801 61.04 62.1301 63.05 62.4301 63.95C62.7901 64.85 63.4201 65.3 64.3201 65.3C65.2801 65.3 66.1501 64.55 66.9301 63.05C67.7701 61.49 68.1901 59.36 68.1901 56.66V48.29H67.5601C63.8401 48.29 61.9801 51.02 61.9801 56.48V57.92ZM123.435 27.68C121.215 27.68 119.265 29.12 117.585 32C115.905 34.88 115.065 38.3 115.065 42.26V66.38H121.455V68H93.3746V66.38H98.3246V26.78H93.3746V25.16H115.065V33.8C115.845 30.74 117.345 28.4 119.565 26.78C121.785 25.1 124.305 24.26 127.125 24.26C129.945 24.26 132.225 25.07 133.965 26.69C135.765 28.25 136.665 30.5 136.665 33.44C136.665 36.32 136.005 38.54 134.685 40.1C133.365 41.66 131.325 42.44 128.565 42.44C125.865 42.44 123.855 41.54 122.535 39.74C121.275 37.94 121.125 35.45 122.085 32.27H125.325C126.825 29.21 126.195 27.68 123.435 27.68ZM151.165 18.95C147.985 18.95 145.705 18.14 144.325 16.52C143.005 14.9 142.345 12.89 142.345 10.49C142.345 8.09 143.065 6.11 144.505 4.55C146.005 2.99 148.255 2.21 151.255 2.21C154.255 2.21 156.535 2.93 158.095 4.37C159.655 5.75 160.435 7.76 160.435 10.4C160.435 12.98 159.685 15.05 158.185 16.61C156.685 18.17 154.345 18.95 151.165 18.95ZM137.575 25.16H159.625V66.38H164.665V68H137.935V66.38H142.885V26.78H137.575V25.16ZM168.57 68.9V52.79H169.65C171.21 58.01 173.31 61.67 175.95 63.77C178.59 65.87 181.89 66.92 185.85 66.92C191.97 66.92 195.03 64.97 195.03 61.07C195.03 59.39 194.28 58.13 192.78 57.29C190.44 55.97 187.44 54.95 183.78 54.23C179.7 53.15 176.28 51.71 173.52 49.91C170.22 47.75 168.57 44.33 168.57 39.65C168.57 34.97 170.01 31.25 172.89 28.49C175.77 25.67 179.61 24.26 184.41 24.26C187.35 24.26 190.38 24.95 193.5 26.33C194.64 26.81 195.51 27.05 196.11 27.05C196.71 27.05 197.22 26.84 197.64 26.42C198.06 26 198.57 25.22 199.17 24.08H200.16V37.85H199.08C196.02 30.05 191.28 26.15 184.86 26.15C182.04 26.15 179.94 26.66 178.56 27.68C177.18 28.64 176.49 29.87 176.49 31.37C176.49 32.27 176.7 32.99 177.12 33.53C177.54 34.01 177.87 34.37 178.11 34.61C178.35 34.85 178.74 35.12 179.28 35.42C179.82 35.66 180.27 35.87 180.63 36.05C180.99 36.17 181.53 36.35 182.25 36.59C183.03 36.83 183.6 36.98 183.96 37.04C188.04 38.06 190.98 38.96 192.78 39.74C194.58 40.46 196.29 41.36 197.91 42.44C201.21 44.72 202.86 48.41 202.86 53.51C202.86 58.55 201.36 62.39 198.36 65.03C195.36 67.61 191.25 68.9 186.03 68.9C182.31 68.9 178.71 68.03 175.23 66.29C174.51 65.81 173.94 65.57 173.52 65.57C172.2 65.57 170.91 66.68 169.65 68.9H168.57ZM207.593 68.9V52.79H208.673C210.233 58.01 212.333 61.67 214.973 63.77C217.613 65.87 220.913 66.92 224.873 66.92C230.993 66.92 234.053 64.97 234.053 61.07C234.053 59.39 233.303 58.13 231.803 57.29C229.463 55.97 226.463 54.95 222.803 54.23C218.723 53.15 215.303 51.71 212.543 49.91C209.243 47.75 207.593 44.33 207.593 39.65C207.593 34.97 209.033 31.25 211.913 28.49C214.793 25.67 218.633 24.26 223.433 24.26C226.373 24.26 229.403 24.95 232.523 26.33C233.663 26.81 234.533 27.05 235.133 27.05C235.733 27.05 236.243 26.84 236.663 26.42C237.083 26 237.593 25.22 238.193 24.08H239.183V37.85H238.103C235.043 30.05 230.303 26.15 223.883 26.15C221.063 26.15 218.963 26.66 217.583 27.68C216.203 28.64 215.513 29.87 215.513 31.37C215.513 32.27 215.723 32.99 216.143 33.53C216.563 34.01 216.893 34.37 217.133 34.61C217.373 34.85 217.763 35.12 218.303 35.42C218.843 35.66 219.293 35.87 219.653 36.05C220.013 36.17 220.553 36.35 221.273 36.59C222.053 36.83 222.623 36.98 222.983 37.04C227.063 38.06 230.003 38.96 231.803 39.74C233.603 40.46 235.313 41.36 236.933 42.44C240.233 44.72 241.883 48.41 241.883 53.51C241.883 58.55 240.383 62.39 237.383 65.03C234.383 67.61 230.273 68.9 225.053 68.9C221.333 68.9 217.733 68.03 214.253 66.29C213.533 65.81 212.963 65.57 212.543 65.57C211.223 65.57 209.933 66.68 208.673 68.9H207.593ZM266.146 46.85H268.756V39.92C268.756 34.22 268.426 30.41 267.766 28.49C267.166 26.51 265.966 25.52 264.166 25.52C263.086 25.52 262.096 25.82 261.196 26.42C260.356 26.96 259.936 27.74 259.936 28.76C259.936 29.72 260.116 30.71 260.476 31.73H262.726C263.206 32.99 263.446 34.52 263.446 36.32C263.446 38.06 262.696 39.59 261.196 40.91C259.696 42.17 257.806 42.8 255.526 42.8C250.366 42.8 247.786 40.31 247.786 35.33C247.786 27.95 254.056 24.26 266.596 24.26C273.736 24.26 278.656 25.49 281.356 27.95C284.116 30.35 285.496 34.79 285.496 41.27V59.54C285.496 62.66 286.366 64.22 288.106 64.22C290.146 64.22 291.346 61.13 291.706 54.95L293.056 55.04C292.816 60.32 291.826 63.95 290.086 65.93C288.346 67.91 285.496 68.9 281.536 68.9C274.336 68.9 270.196 66.68 269.116 62.24C268.336 64.52 267.166 66.2 265.606 67.28C264.046 68.36 261.766 68.9 258.766 68.9C249.886 68.9 245.446 65.27 245.446 58.01C245.446 53.75 247.126 50.84 250.486 49.28C253.906 47.66 259.126 46.85 266.146 46.85ZM262.546 57.92C262.546 61.04 262.696 63.05 262.996 63.95C263.356 64.85 263.986 65.3 264.886 65.3C265.846 65.3 266.716 64.55 267.496 63.05C268.336 61.49 268.756 59.36 268.756 56.66V48.29H268.126C264.406 48.29 262.546 51.02 262.546 56.48V57.92Z" fill="#106D57"/>
<path d="M319.141 25.88C316.501 25.88 314.611 27.32 313.471 30.2C312.331 33.08 311.761 37.85 311.761 44.51V49.19C311.761 55.13 312.421 59.39 313.741 61.97C315.061 64.55 317.491 65.84 321.031 65.84C324.571 65.84 327.391 64.64 329.491 62.24C331.591 59.84 332.941 57.11 333.541 54.05L335.161 54.23C334.021 59.39 331.921 63.11 328.861 65.39C325.741 67.73 321.451 68.9 315.991 68.9C309.031 68.9 303.691 67.04 299.971 63.32C296.251 59.54 294.391 54.05 294.391 46.85C294.391 39.59 296.491 34.01 300.691 30.11C304.951 26.21 310.861 24.26 318.421 24.26C323.761 24.26 327.841 25.31 330.661 27.41C333.481 29.45 334.891 32.03 334.891 35.15C334.891 38.27 334.201 40.55 332.821 41.99C331.501 43.43 329.641 44.15 327.241 44.15C324.901 44.15 323.011 43.52 321.571 42.26C320.131 41 319.411 39.14 319.411 36.68C319.411 35.6 319.561 34.52 319.861 33.44H322.831C323.251 32.24 323.461 31.16 323.461 30.2C323.461 27.32 322.021 25.88 319.141 25.88ZM336.568 0.499995H358.258V33.44C359.218 30.68 360.688 28.46 362.668 26.78C364.648 25.1 367.648 24.26 371.668 24.26C380.968 24.26 385.618 29.27 385.618 39.29V66.38H390.658V68H365.188V66.38H368.878V37.13C368.878 33.53 368.638 31.22 368.158 30.2C367.678 29.12 366.808 28.58 365.548 28.58C363.628 28.58 361.918 29.84 360.418 32.36C358.978 34.88 358.258 37.94 358.258 41.54V66.38H362.128V68H336.568V66.38H341.518V2.12H336.568V0.499995ZM405.257 18.95C402.077 18.95 399.797 18.14 398.417 16.52C397.097 14.9 396.437 12.89 396.437 10.49C396.437 8.09 397.157 6.11 398.597 4.55C400.097 2.99 402.347 2.21 405.347 2.21C408.347 2.21 410.627 2.93 412.187 4.37C413.747 5.75 414.527 7.76 414.527 10.4C414.527 12.98 413.777 15.05 412.277 16.61C410.777 18.17 408.437 18.95 405.257 18.95ZM391.667 25.16H413.717V66.38H418.757V68H392.027V66.38H396.977V26.78H391.667V25.16ZM471.484 68H450.964L449.974 61.43C449.014 63.83 447.574 65.69 445.654 67.01C443.794 68.27 441.004 68.9 437.284 68.9C427.984 68.9 423.334 63.89 423.334 53.87V26.78H418.294V25.16H440.074V56.03C440.074 59.63 440.314 62 440.794 63.14C441.334 64.28 442.354 64.85 443.854 64.85C445.414 64.85 446.794 63.92 447.994 62.06C449.194 60.2 449.794 57.62 449.794 54.32V26.78H445.654V25.16H466.534V66.38H471.484V68Z" fill="#879F8D"/>
</svg>
