<svg width="415" height="59" viewBox="0 0 415 59" fill="none" xmlns="http://www.w3.org/2000/svg">
<path d="M28.2 58.36C23.0267 58.36 18.36 57.2933 14.2 55.16C10.04 53.0267 6.73333 49.88 4.28 45.72C1.88 41.56 0.68 36.4933 0.68 30.52C0.68 26.04 1.4 22.0667 2.84 18.6C4.33333 15.1333 6.36 12.2267 8.92 9.88C11.5333 7.48 14.52 5.69333 17.88 4.52C21.24 3.29333 24.8133 2.68 28.6 2.68C31.5333 2.68 34.28 3.02667 36.84 3.72C39.4 4.36 41.8533 5.32 44.2 6.6L44.52 17.08H42.36L39 10.76C38.4667 9.69333 37.88 8.73333 37.24 7.88C36.6533 7.02666 35.88 6.41333 34.92 6.04C33.5867 5.4 32.0133 5.08 30.2 5.08C27.0533 5.08 24.1733 5.88 21.56 7.48C19 9.08 16.9467 11.7467 15.4 15.48C13.8533 19.16 13.08 24.2 13.08 30.6C13.08 36.9467 13.8 41.9867 15.24 45.72C16.7333 49.4533 18.7333 52.12 21.24 53.72C23.7467 55.2667 26.5733 56.04 29.72 56.04C31.16 56.04 32.3333 55.9333 33.24 55.72C34.1467 55.5067 35.0533 55.2133 35.96 54.84C37.0267 54.4133 37.8533 53.8 38.44 53C39.0267 52.1467 39.5333 51.1867 39.96 50.12L43 42.84H45.16L44.84 54.36C42.5467 55.64 40.0133 56.6267 37.24 57.32C34.4667 58.0133 31.4533 58.36 28.2 58.36ZM60.4831 58.12C57.4431 58.12 54.8565 57.2667 52.7231 55.56C50.6431 53.8 49.6031 51.2933 49.6031 48.04C49.6031 45.48 50.8298 43.1333 53.2831 41C55.7898 38.8133 59.7098 37.2133 65.0431 36.2C65.9498 35.9867 66.9898 35.8 68.1631 35.64C69.3898 35.4267 70.5898 35.2133 71.7631 35V29.32C71.7631 25.6933 71.3098 23.1867 70.4031 21.8C69.4965 20.4133 68.0565 19.72 66.0831 19.72H65.8431C64.6165 19.72 63.6298 20.12 62.8831 20.92C62.1898 21.6667 61.7365 22.92 61.5231 24.68L61.2831 25.72C61.1231 27.8533 60.5631 29.4267 59.6031 30.44C58.6431 31.4 57.4431 31.88 56.0031 31.88C54.6698 31.88 53.5498 31.48 52.6431 30.68C51.7898 29.8267 51.3631 28.7333 51.3631 27.4C51.3631 25.2133 52.1098 23.3733 53.6031 21.88C55.0965 20.3867 57.0698 19.2667 59.5231 18.52C62.0298 17.7733 64.7231 17.4 67.6031 17.4C72.3498 17.4 75.9765 18.5467 78.4831 20.84C80.9898 23.1333 82.2431 26.8667 82.2431 32.04V49.88C82.2431 52.1733 83.3365 53.32 85.5231 53.32H87.3631L88.1631 54.2C87.2031 55.4267 86.1365 56.36 84.9631 57C83.7898 57.6933 82.1898 58.04 80.1631 58.04C77.8698 58.04 76.0298 57.5067 74.6431 56.44C73.3098 55.32 72.4298 53.8533 72.0031 52.04C70.2965 53.8533 68.6165 55.32 66.9631 56.44C65.3098 57.56 63.1498 58.12 60.4831 58.12ZM65.1231 53C66.1898 53 67.2031 52.76 68.1631 52.28C69.1231 51.8 70.3231 51 71.7631 49.88V37.08C70.3765 37.2933 68.9631 37.56 67.5231 37.88C65.2298 38.4133 63.3631 39.4 61.9231 40.84C60.5365 42.28 59.8431 44.2267 59.8431 46.68C59.8431 48.8133 60.3231 50.4133 61.2831 51.48C62.2965 52.4933 63.5765 53 65.1231 53ZM89.7425 57V55.48L90.9425 55.08C92.0092 54.8133 92.7292 54.36 93.1025 53.72C93.5292 53.08 93.7425 52.2267 93.7425 51.16V27.72C93.6892 26.5467 93.4758 25.6667 93.1025 25.08C92.7292 24.44 92.0092 24.0133 90.9425 23.8L89.7425 23.48V22.04L102.783 17.4L103.743 18.28L104.463 25.32V25.88C105.263 24.3867 106.276 23 107.503 21.72C108.729 20.44 110.063 19.4 111.503 18.6C112.943 17.8 114.383 17.4 115.823 17.4C117.849 17.4 119.369 17.9333 120.383 19C121.396 20.0667 121.903 21.4267 121.903 23.08C121.903 24.8933 121.396 26.28 120.383 27.24C119.369 28.1467 118.143 28.6 116.703 28.6C114.569 28.6 112.729 27.64 111.183 25.72L111.023 25.56C110.489 24.92 109.876 24.5733 109.182 24.52C108.543 24.4133 107.903 24.7333 107.263 25.48C106.729 26.0133 106.223 26.6533 105.743 27.4C105.316 28.0933 104.916 28.92 104.543 29.88V50.84C104.543 51.8533 104.756 52.7067 105.183 53.4C105.609 54.04 106.329 54.4933 107.343 54.76L109.743 55.48V57H89.7425ZM133.788 13C132.028 13 130.535 12.44 129.308 11.32C128.081 10.2 127.468 8.78667 127.468 7.08C127.468 5.32 128.081 3.90667 129.308 2.84C130.535 1.72 132.028 1.16 133.788 1.16C135.548 1.16 137.041 1.72 138.268 2.84C139.495 3.90667 140.108 5.32 140.108 7.08C140.108 8.78667 139.495 10.2 138.268 11.32C137.041 12.44 135.548 13 133.788 13ZM124.588 57V55.48L125.788 55.16C126.855 54.84 127.575 54.36 127.948 53.72C128.321 53.08 128.535 52.2267 128.588 51.16V36.44C128.588 34.7867 128.588 33.2667 128.588 31.88C128.588 30.44 128.561 28.9733 128.508 27.48C128.508 26.4133 128.295 25.5867 127.868 25C127.495 24.36 126.775 23.9333 125.708 23.72L124.588 23.48V22.04L138.588 17.4L139.548 18.28L139.308 29.64V51.24C139.308 52.3067 139.495 53.16 139.868 53.8C140.295 54.44 141.015 54.92 142.028 55.24L142.908 55.48V57H124.588ZM160.301 58.12C157.741 58.12 155.421 57.8267 153.341 57.24C151.315 56.7067 149.368 55.9333 147.501 54.92V45.48H149.661L152.061 50.04C153.075 52.0133 154.221 53.48 155.501 54.44C156.835 55.4 158.515 55.88 160.541 55.88C163.048 55.88 165.048 55.3467 166.541 54.28C168.035 53.16 168.781 51.6667 168.781 49.8C168.781 48.0933 168.221 46.7067 167.101 45.64C165.981 44.5733 163.981 43.5867 161.101 42.68L157.581 41.56C154.435 40.6 151.928 39.16 150.061 37.24C148.248 35.2667 147.341 32.8133 147.341 29.88C147.341 27.5867 147.955 25.5067 149.181 23.64C150.408 21.72 152.195 20.2 154.541 19.08C156.888 17.96 159.741 17.4 163.101 17.4C165.288 17.4 167.288 17.6667 169.101 18.2C170.968 18.68 172.781 19.3733 174.541 20.28L174.061 28.84H171.981L169.501 24.28C168.648 22.5733 167.768 21.4 166.861 20.76C166.008 20.0667 164.675 19.72 162.861 19.72C160.941 19.72 159.235 20.2267 157.741 21.24C156.301 22.2 155.581 23.56 155.581 25.32C155.581 26.9733 156.195 28.3333 157.421 29.4C158.648 30.4133 160.621 31.3733 163.341 32.28L166.781 33.32C170.675 34.5467 173.448 36.1733 175.101 38.2C176.755 40.2267 177.581 42.6533 177.581 45.48C177.581 49.2667 176.061 52.3333 173.021 54.68C170.035 56.9733 165.795 58.12 160.301 58.12ZM195.067 58.12C192.507 58.12 190.187 57.8267 188.107 57.24C186.08 56.7067 184.134 55.9333 182.267 54.92V45.48H184.427L186.827 50.04C187.84 52.0133 188.987 53.48 190.267 54.44C191.6 55.4 193.28 55.88 195.307 55.88C197.814 55.88 199.814 55.3467 201.307 54.28C202.8 53.16 203.547 51.6667 203.547 49.8C203.547 48.0933 202.987 46.7067 201.867 45.64C200.747 44.5733 198.747 43.5867 195.867 42.68L192.347 41.56C189.2 40.6 186.694 39.16 184.827 37.24C183.014 35.2667 182.107 32.8133 182.107 29.88C182.107 27.5867 182.72 25.5067 183.947 23.64C185.174 21.72 186.96 20.2 189.307 19.08C191.654 17.96 194.507 17.4 197.867 17.4C200.054 17.4 202.054 17.6667 203.867 18.2C205.734 18.68 207.547 19.3733 209.307 20.28L208.827 28.84H206.747L204.267 24.28C203.414 22.5733 202.534 21.4 201.627 20.76C200.774 20.0667 199.44 19.72 197.627 19.72C195.707 19.72 194 20.2267 192.507 21.24C191.067 22.2 190.347 23.56 190.347 25.32C190.347 26.9733 190.96 28.3333 192.187 29.4C193.414 30.4133 195.387 31.3733 198.107 32.28L201.547 33.32C205.44 34.5467 208.214 36.1733 209.867 38.2C211.52 40.2267 212.347 42.6533 212.347 45.48C212.347 49.2667 210.827 52.3333 207.787 54.68C204.8 56.9733 200.56 58.12 195.067 58.12ZM227.202 58.12C224.162 58.12 221.575 57.2667 219.442 55.56C217.362 53.8 216.322 51.2933 216.322 48.04C216.322 45.48 217.549 43.1333 220.002 41C222.509 38.8133 226.429 37.2133 231.762 36.2C232.669 35.9867 233.709 35.8 234.882 35.64C236.109 35.4267 237.309 35.2133 238.482 35V29.32C238.482 25.6933 238.029 23.1867 237.122 21.8C236.215 20.4133 234.775 19.72 232.802 19.72H232.562C231.335 19.72 230.349 20.12 229.602 20.92C228.909 21.6667 228.455 22.92 228.242 24.68L228.002 25.72C227.842 27.8533 227.282 29.4267 226.322 30.44C225.362 31.4 224.162 31.88 222.722 31.88C221.389 31.88 220.269 31.48 219.362 30.68C218.509 29.8267 218.082 28.7333 218.082 27.4C218.082 25.2133 218.829 23.3733 220.322 21.88C221.815 20.3867 223.789 19.2667 226.242 18.52C228.749 17.7733 231.442 17.4 234.322 17.4C239.069 17.4 242.695 18.5467 245.202 20.84C247.709 23.1333 248.962 26.8667 248.962 32.04V49.88C248.962 52.1733 250.055 53.32 252.242 53.32H254.082L254.882 54.2C253.922 55.4267 252.855 56.36 251.682 57C250.509 57.6933 248.909 58.04 246.882 58.04C244.589 58.04 242.749 57.5067 241.362 56.44C240.029 55.32 239.149 53.8533 238.722 52.04C237.015 53.8533 235.335 55.32 233.682 56.44C232.029 57.56 229.869 58.12 227.202 58.12ZM231.842 53C232.909 53 233.922 52.76 234.882 52.28C235.842 51.8 237.042 51 238.482 49.88V37.08C237.095 37.2933 235.682 37.56 234.242 37.88C231.949 38.4133 230.082 39.4 228.642 40.84C227.255 42.28 226.562 44.2267 226.562 46.68C226.562 48.8133 227.042 50.4133 228.002 51.48C229.015 52.4933 230.295 53 231.842 53Z" fill="#007D6C"/>
<path d="M284.216 58.36C279.042 58.36 274.376 57.2933 270.216 55.16C266.056 53.0267 262.749 49.88 260.296 45.72C257.896 41.56 256.696 36.4933 256.696 30.52C256.696 26.04 257.416 22.0667 258.856 18.6C260.349 15.1333 262.376 12.2267 264.936 9.88C267.549 7.48 270.536 5.69333 273.896 4.52C277.256 3.29333 280.829 2.68 284.616 2.68C287.549 2.68 290.296 3.02667 292.856 3.72C295.416 4.36 297.869 5.32 300.216 6.6L300.536 17.08H298.376L295.016 10.76C294.482 9.69333 293.896 8.73333 293.256 7.88C292.669 7.02666 291.896 6.41333 290.936 6.04C289.602 5.4 288.029 5.08 286.216 5.08C283.069 5.08 280.189 5.88 277.576 7.48C275.016 9.08 272.962 11.7467 271.416 15.48C269.869 19.16 269.096 24.2 269.096 30.6C269.096 36.9467 269.816 41.9867 271.256 45.72C272.749 49.4533 274.749 52.12 277.256 53.72C279.762 55.2667 282.589 56.04 285.736 56.04C287.176 56.04 288.349 55.9333 289.256 55.72C290.162 55.5067 291.069 55.2133 291.976 54.84C293.042 54.4133 293.869 53.8 294.456 53C295.042 52.1467 295.549 51.1867 295.976 50.12L299.016 42.84H301.176L300.856 54.36C298.562 55.64 296.029 56.6267 293.256 57.32C290.482 58.0133 287.469 58.36 284.216 58.36ZM305.059 57V55.4L306.099 55.08C308.019 54.4933 308.979 53.16 308.979 51.08V9.88C308.979 8.76 308.792 7.93333 308.419 7.4C308.045 6.81333 307.325 6.38666 306.259 6.12L305.059 5.8V4.28L318.579 0.839998L319.859 1.56L319.539 12.84V23.08C321.405 21.5333 323.432 20.2 325.619 19.08C327.859 17.96 330.259 17.4 332.819 17.4C336.339 17.4 339.085 18.3867 341.059 20.36C343.085 22.3333 344.099 25.3733 344.099 29.48V51.16C344.099 52.2267 344.312 53.08 344.739 53.72C345.165 54.36 345.912 54.84 346.979 55.16L347.699 55.4V57H329.459V55.4L330.419 55.08C332.339 54.5467 333.299 53.2133 333.299 51.08V27.96C333.299 25.7733 332.925 24.2533 332.179 23.4C331.432 22.5467 330.125 22.12 328.259 22.12C326.979 22.12 325.619 22.36 324.179 22.84C322.792 23.32 321.325 24.12 319.779 25.24V51.24C319.779 52.3067 319.992 53.16 320.419 53.8C320.845 54.44 321.565 54.8933 322.579 55.16L323.299 55.4V57H305.059ZM360.194 13C358.434 13 356.941 12.44 355.714 11.32C354.488 10.2 353.874 8.78667 353.874 7.08C353.874 5.32 354.488 3.90667 355.714 2.84C356.941 1.72 358.434 1.16 360.194 1.16C361.954 1.16 363.448 1.72 364.674 2.84C365.901 3.90667 366.514 5.32 366.514 7.08C366.514 8.78667 365.901 10.2 364.674 11.32C363.448 12.44 361.954 13 360.194 13ZM350.994 57V55.48L352.194 55.16C353.261 54.84 353.981 54.36 354.354 53.72C354.728 53.08 354.941 52.2267 354.994 51.16V36.44C354.994 34.7867 354.994 33.2667 354.994 31.88C354.994 30.44 354.968 28.9733 354.914 27.48C354.914 26.4133 354.701 25.5867 354.274 25C353.901 24.36 353.181 23.9333 352.114 23.72L350.994 23.48V22.04L364.994 17.4L365.954 18.28L365.714 29.64V51.24C365.714 52.3067 365.901 53.16 366.274 53.8C366.701 54.44 367.421 54.92 368.434 55.24L369.314 55.48V57H350.994ZM387.188 58.12C385.108 58.12 383.214 57.7467 381.508 57C379.801 56.2 378.441 54.92 377.428 53.16C376.468 51.3467 376.014 48.9733 376.068 46.04L376.308 25.96C376.308 24.7867 376.121 23.9333 375.748 23.4C375.374 22.8667 374.708 22.4933 373.748 22.28L372.788 21.96V20.52L386.468 17.88L387.348 18.76L386.948 30.04V48.2C386.948 50.0133 387.428 51.3467 388.388 52.2C389.401 53 390.654 53.4 392.148 53.4C393.694 53.4 395.081 53.1867 396.308 52.76C397.588 52.28 398.894 51.5867 400.228 50.68L400.468 26.04C400.468 24.8133 400.281 23.96 399.908 23.48C399.588 23 398.948 22.6267 397.988 22.36L397.108 22.12V20.68L410.468 17.88L411.348 18.76L411.108 30.04V51C411.108 52.12 411.241 53.0267 411.508 53.72C411.828 54.36 412.494 54.84 413.508 55.16L414.548 55.48V57L401.028 57.8L400.308 52.76C398.494 54.3067 396.521 55.5867 394.388 56.6C392.254 57.6133 389.854 58.12 387.188 58.12Z" fill="#79BB9D"/>
</svg>
